<?xml version="1.0" encoding="utf-8"?>
<!-- Generator: Adobe Illustrator 23.0.1, SVG Export Plug-In . SVG Version: 6.00 Build 0)  -->
<svg version="1.1" id="Layer_1" xmlns="http://www.w3.org/2000/svg" xmlns:xlink="http://www.w3.org/1999/xlink" x="0px" y="0px"
	 viewBox="0 0 234.1 485.1" style="enable-background:new 0 0 234.1 485.1;" xml:space="preserve">
<style type="text/css">
	.st0{fill:url(#SVGID_1_);}
	.st1{fill:url(#SVGID_2_);}
	.st2{fill:url(#SVGID_3_);}
	.st3{fill:url(#SVGID_4_);}
	.st4{fill:url(#SVGID_5_);}
	.st5{fill:url(#SVGID_6_);}
	.st6{fill:url(#SVGID_7_);}
	.st7{fill:#595959;}
	.st8{clip-path:url(#SVGID_9_);filter:url(#filter5082);}
	.st9{opacity:0.596;fill:none;stroke:#000000;stroke-width:0.2;stroke-linecap:square;stroke-linejoin:bevel;}
	.st10{filter:url(#filter5104);}
	.st11{filter:url(#filter5167);}
	.st12{fill-rule:evenodd;clip-rule:evenodd;fill:url(#SVGID_10_);}
	.st13{fill:url(#SVGID_11_);}
	.st14{fill:#1A162D;}
	.st15{clip-path:url(#SVGID_13_);}
	.st16{filter:url(#filter5730);}
	.st17{fill:#7D77A1;}
	.st18{filter:url(#filter5633);}
	.st19{fill:#222222;}
	.st20{fill:#191919;}
	.st21{stroke:#1C1C1C;stroke-width:0.5;stroke-linecap:square;stroke-linejoin:round;}
</style>
<filter  color-interpolation-filters="sRGB" height="1.276" id="filter5730" width="1.276" x="-.138" y="-.138">
	<feGaussianBlur  stdDeviation="0.043588634"></feGaussianBlur>
</filter>
<filter  color-interpolation-filters="sRGB" height="3.1071999" id="filter5633" width="3.1071999" x="-1.0536" y="-1.0536">
	<feGaussianBlur  stdDeviation="0.099448476"></feGaussianBlur>
</filter>
<filter  color-interpolation-filters="sRGB" height="1.3528461" id="filter5167" width="1.0124224" x="-.0062112389" y="-.17642307">
	<feGaussianBlur  stdDeviation="0.12770472"></feGaussianBlur>
</filter>
<filter  color-interpolation-filters="sRGB" height="1.0088253" id="filter5104" width="1.0187418" x="-.009370897" y="-.0044126739">
	<feGaussianBlur  stdDeviation="0.23845453"></feGaussianBlur>
</filter>
<filter  color-interpolation-filters="sRGB" height="1.0088702" id="filter5082" width="1.0185423" x="-.0092711262" y="-.004435149">
	<feGaussianBlur  stdDeviation="0.24374384"></feGaussianBlur>
</filter>
<g transform="translate(0,44.671005)">
	<g transform="matrix(1.2975404,0,0,1.2975404,-47.327292,15.945584)">
		<g transform="translate(35.840876,-44.329514)">
			
				<linearGradient id="SVGID_1_" gradientUnits="userSpaceOnUse" x1="88.6046" y1="313.0579" x2="89.718" y2="313.0579" gradientTransform="matrix(3.6781 0 0 -3.6781 -147.9788 1259.6615)">
				<stop  offset="0" style="stop-color:#5E5E5E"/>
				<stop  offset="0.596" style="stop-color:#6B6B6B"/>
				<stop  offset="1" style="stop-color:#909090"/>
			</linearGradient>
			<path class="st0" d="M169.4,95.2h10.2c0.8,0,1.5,0.6,1.5,1.3v23.3c0,0.7-0.7,1.3-1.5,1.3h-10.2c-0.8,0-1.5-0.6-1.5-1.3V96.5
				C167.9,95.8,168.6,95.2,169.4,95.2z"/>
			
				<linearGradient id="SVGID_2_" gradientUnits="userSpaceOnUse" x1="83.2147" y1="319.6907" x2="83.2147" y2="318.844" gradientTransform="matrix(3.6781 0 0 -3.6781 -131.5954 1271.6886)">
				<stop  offset="0" style="stop-color:#313131;stop-opacity:0.5"/>
				<stop  offset="1" style="stop-color:#313131;stop-opacity:0"/>
			</linearGradient>
			<path class="st1" d="M169.4,95.2h10.2c0.8,0,1.5,0.6,1.5,1.3v23.3c0,0.7-0.7,1.3-1.5,1.3h-10.2c-0.8,0-1.5-0.6-1.5-1.3V96.5
				C167.9,95.8,168.6,95.2,169.4,95.2z"/>
			
				<linearGradient id="SVGID_3_" gradientUnits="userSpaceOnUse" x1="83.2147" y1="298.737" x2="83.2147" y2="297.8904" gradientTransform="matrix(3.6781 0 0 3.6781 -131.5954 -978.1924)">
				<stop  offset="0" style="stop-color:#313131;stop-opacity:0.5"/>
				<stop  offset="1" style="stop-color:#313131;stop-opacity:0"/>
			</linearGradient>
			<path class="st2" d="M169.4,121.2h10.2c0.8,0,1.5-0.6,1.5-1.3V96.5c0-0.7-0.7-1.3-1.5-1.3h-10.2c-0.8,0-1.5,0.6-1.5,1.3v23.3
				C167.9,120.6,168.6,121.2,169.4,121.2z"/>
		</g>
		<g transform="translate(28.044151,-42.868215)">
			
				<linearGradient id="SVGID_4_" gradientUnits="userSpaceOnUse" x1="96.4014" y1="308.3266" x2="97.5147" y2="308.3266" gradientTransform="matrix(3.6781 0 0 -3.6781 -168.859 1310.0377)">
				<stop  offset="0" style="stop-color:#5E5E5E"/>
				<stop  offset="0.596" style="stop-color:#6B6B6B"/>
				<stop  offset="1" style="stop-color:#909090"/>
			</linearGradient>
			<path class="st3" d="M177.2,151h10.2c0.8,0,1.5,0.6,1.5,1.3v47.4c0,0.7-0.7,1.3-1.5,1.3h-10.2c-0.8,0-1.5-0.6-1.5-1.3v-47.4
				C175.7,151.6,176.4,151,177.2,151z"/>
			
				<linearGradient id="SVGID_5_" gradientUnits="userSpaceOnUse" x1="91.0114" y1="318.2294" x2="91.0114" y2="317.3827" gradientTransform="matrix(3.6781 0 0 -3.6781 -152.4756 1322.0648)">
				<stop  offset="0" style="stop-color:#313131;stop-opacity:0.5"/>
				<stop  offset="1" style="stop-color:#313131;stop-opacity:0"/>
			</linearGradient>
			<path class="st4" d="M177.2,151h10.2c0.8,0,1.5,0.6,1.5,1.3v23.3c0,0.7-0.7,1.3-1.5,1.3h-10.2c-0.8,0-1.5-0.6-1.5-1.3v-23.3
				C175.7,151.6,176.4,151,177.2,151z"/>
			
				<linearGradient id="SVGID_6_" gradientUnits="userSpaceOnUse" x1="91.0114" y1="297.2758" x2="91.0114" y2="296.4291" gradientTransform="matrix(3.6781 0 0 3.6781 -152.4756 -893.0123)">
				<stop  offset="0" style="stop-color:#313131;stop-opacity:0.5"/>
				<stop  offset="1" style="stop-color:#313131;stop-opacity:0"/>
			</linearGradient>
			<path class="st5" d="M177.2,201h10.2c0.8,0,1.5-0.6,1.5-1.3v-23.3c0-0.7-0.7-1.3-1.5-1.3h-10.2c-0.8,0-1.5,0.6-1.5,1.3v23.3
				C175.7,200.4,176.4,201,177.2,201z"/>
		</g>
		<g>
			
				<linearGradient id="SVGID_7_" gradientUnits="userSpaceOnUse" x1="148.7091" y1="298.7145" x2="148.7091" y2="166.817" gradientTransform="matrix(3.6781 0 0 -3.6781 -421.0577 1051.9756)">
				<stop  offset="0" style="stop-color:#9B9B9B"/>
				<stop  offset="1" style="stop-color:#202020"/>
			</linearGradient>
			<path class="st6" d="M53.6-46.7h144.6c9.5,0,17.1,7.7,17.1,17.1V310c0,9.5-7.7,17.1-17.1,17.1H53.6c-9.5,0-17.1-7.7-17.1-17.1
				V-29.6C36.5-39,44.1-46.7,53.6-46.7z"/>
			<rect x="36.5" y="55.4" class="st7" width="30.9" height="3.9"/>
			<rect x="36.5" y="-18" class="st7" width="178.9" height="3.9"/>
		</g>
		<g>
			<defs>
				<path id="SVGID_8_" d="M53.6-46.7h144.6c9.5,0,17.1,7.7,17.1,17.1V310c0,9.5-7.7,17.1-17.1,17.1H53.6c-9.5,0-17.1-7.7-17.1-17.1
					V-29.6C36.5-39,44.1-46.7,53.6-46.7z"/>
			</defs>
			<clipPath id="SVGID_9_">
				<use xlink:href="#SVGID_8_"  style="overflow:visible;"/>
			</clipPath>
			<g class="st8">
				<path class="st9" d="M53.6-46.7h144.6c9.5,0,17.1,7.7,17.1,17.1V310c0,9.5-7.7,17.1-17.1,17.1H53.6c-9.5,0-17.1-7.7-17.1-17.1
					V-29.6C36.5-39,44.1-46.7,53.6-46.7z"/>
			</g>
		</g>
		<g class="st10">
			<path class="st9" d="M54.9-43.6h142.1c8.6,0,15.5,7,15.5,15.5v336.6c0,8.6-7,15.5-15.5,15.5H54.9c-8.6,0-15.5-7-15.5-15.5V-28.1
				C39.3-36.6,46.3-43.6,54.9-43.6z"/>
		</g>
		<g>
			<path d="M54.9-43.6h142.1c8.6,0,15.5,7,15.5,15.5v336.6c0,8.6-7,15.5-15.5,15.5H54.9c-8.6,0-15.5-7-15.5-15.5V-28.1
				C39.3-36.6,46.3-43.6,54.9-43.6z"/>
			<g class="st11">
				
					<linearGradient id="SVGID_10_" gradientUnits="userSpaceOnUse" x1="75.2896" y1="297.0453" x2="125.2472" y2="297.0453" gradientTransform="matrix(3.6781 0 0 -3.6781 -211.1991 1052.7799)">
					<stop  offset="0" style="stop-color:#7E7E7E"/>
					<stop  offset="1" style="stop-color:#909090"/>
				</linearGradient>
				<path class="st12" d="M66.6-41.4h127.8c9.1,0,12,4.1,12,4.1s-3.3-4.9-9.9-4.9H88.3C72.7-42.2,66.6-41.4,66.6-41.4L66.6-41.4z"/>
			</g>
			
				<linearGradient id="SVGID_11_" gradientUnits="userSpaceOnUse" x1="68.5099" y1="285.4398" x2="71.0323" y2="285.4398" gradientTransform="matrix(3.1853 1.839 1.839 -3.1853 -678.2947 757.1553)">
				<stop  offset="0" style="stop-color:#1D1D1D"/>
				<stop  offset="1" style="stop-color:#242424"/>
			</linearGradient>
			<circle class="st13" cx="68" cy="-24.3" r="3.6"/>
		</g>
		<g transform="translate(33.167328,-42.793984)">
			<circle class="st14" cx="34.8" cy="18.5" r="2.3"/>
			<g>
				<defs>
					<circle id="SVGID_12_" cx="34.8" cy="18.5" r="3"/>
				</defs>
				<clipPath id="SVGID_13_">
					<use xlink:href="#SVGID_12_"  style="overflow:visible;"/>
				</clipPath>
				<g class="st15">
					<g class="st16">
						<circle class="st17" cx="35.5" cy="19.2" r="1.4"/>
					</g>
					<g class="st18">
						<circle class="st17" cx="34" cy="17.7" r="0.4"/>
					</g>
				</g>
			</g>
		</g>
		<g transform="translate(36.178897,-42.534126)">
			<path class="st19" d="M58.1,15.8h63.3c1.2,0,2.2,1,2.2,2.2l0,0c0,1.2-1,2.2-2.2,2.2H58.1c-1.2,0-2.2-1-2.2-2.2l0,0
				C55.8,16.8,56.8,15.8,58.1,15.8z"/>
			<path class="st20" d="M56.3,17.7c0,0.1,0,0.2,0,0.3c0,1,0.8,1.8,1.8,1.8h63.3c1,0,1.8-0.8,1.8-1.8c0-0.1,0-0.2,0-0.3
				c-0.1,0.9-0.9,1.5-1.8,1.5H58C57.1,19.3,56.4,18.6,56.3,17.7L56.3,17.7z"/>
		</g>
		<g transform="translate(36.178897,74.643181)">
			<path class="st19" d="M58.1,230.8h63.3c1.2,0,2.2,1,2.2,2.2l0,0c0,1.2-1,2.2-2.2,2.2H58.1c-1.2,0-2.2-1-2.2-2.2l0,0
				C55.8,231.8,56.8,230.8,58.1,230.8z"/>
			<path class="st20" d="M56.3,232.7c0,0.1,0,0.2,0,0.3c0,1,0.8,1.8,1.8,1.8h63.3c1,0,1.8-0.8,1.8-1.8c0-0.1,0-0.2,0-0.3
				c-0.1,0.9-0.9,1.5-1.8,1.5H58C57.1,234.2,56.4,233.6,56.3,232.7L56.3,232.7z"/>
		</g>
		<rect x="45.9" y="-1.4" class="st21" width="160.1" height="283.3"/>
	</g>
</g>
</svg>
